# xmcd
#
# Track frame offsets: 
#        150
#        12226
#        31134
#        39301
#        54258
#        67892
#        73927
#        90015
#        105641
#        129353
#        132909
#        144322
#
# Disc length: 2093 seconds
#
# Revision: 2
# Processed by: cddbd v1.5.2PL0 Copyright (c) Steve Scherf et al.
# Submitted via: ExactAudioCopy v1.3
#
DISCID=90082b0c
DTITLE=Frightened Rabbit - Sing the Greys
DYEAR=2006
DGENRE=Indie
TTITLE0=The Greys
TTITLE1=Music Now
TTITLE2=The First Incident
TTITLE3=Yawns
TTITLE4=Be Less Rude
TTITLE5=The Second Incident
TTITLE6=Go-Go-Girls
TTITLE7=Behave!
TTITLE8=Square 9
TTITLE9=The Final Incident
TTITLE10=Snake...
TTITLE11=The Greys (Live)
EXTD=
EXTT0=
EXTT1=
EXTT2=
EXTT3=
EXTT4=
EXTT5=
EXTT6=
EXTT7=
EXTT8=
EXTT9=
EXTT10=
EXTT11=
PLAYORDER=
